<mxfile host="app.diagrams.net" modified="2024-03-10T20:16:44.555Z" agent="Mozilla/5.0 (Windows NT 10.0; Win64; x64) AppleWebKit/537.36 (KHTML, like Gecko) Chrome/120.0.0.0 YaBrowser/24.1.0.0 Safari/537.36" etag="m0xBCX8GRcvRRwdYQgMA" version="21.3.7" type="device">
  <diagram name="Página-1" id="IyxP6VDC8z7l-iqj6JC5">
    <mxGraphModel dx="1720" dy="769" grid="1" gridSize="10" guides="1" tooltips="1" connect="1" arrows="1" fold="1" page="1" pageScale="1" pageWidth="5000" pageHeight="5000" math="0" shadow="0">
      <root>
        <mxCell id="0" />
        <mxCell id="1" parent="0" />
        <mxCell id="fGU5-6Gu9raDwxBx_SRh-3" style="edgeStyle=orthogonalEdgeStyle;rounded=0;orthogonalLoop=1;jettySize=auto;html=1;exitX=1;exitY=0.5;exitDx=0;exitDy=0;entryX=0;entryY=0.5;entryDx=0;entryDy=0;" edge="1" parent="1" source="fGU5-6Gu9raDwxBx_SRh-1" target="fGU5-6Gu9raDwxBx_SRh-2">
          <mxGeometry relative="1" as="geometry" />
        </mxCell>
        <mxCell id="fGU5-6Gu9raDwxBx_SRh-1" value="&lt;font style=&quot;font-size: 19px;&quot;&gt;Начало&lt;/font&gt;" style="ellipse;whiteSpace=wrap;html=1;" vertex="1" parent="1">
          <mxGeometry x="140" y="220" width="180" height="80" as="geometry" />
        </mxCell>
        <mxCell id="fGU5-6Gu9raDwxBx_SRh-7" style="edgeStyle=orthogonalEdgeStyle;rounded=0;orthogonalLoop=1;jettySize=auto;html=1;exitX=0.5;exitY=1;exitDx=0;exitDy=0;entryX=0.5;entryY=0;entryDx=0;entryDy=0;" edge="1" parent="1" source="fGU5-6Gu9raDwxBx_SRh-2" target="fGU5-6Gu9raDwxBx_SRh-6">
          <mxGeometry relative="1" as="geometry">
            <Array as="points">
              <mxPoint x="530" y="360" />
              <mxPoint x="205" y="360" />
            </Array>
          </mxGeometry>
        </mxCell>
        <mxCell id="fGU5-6Gu9raDwxBx_SRh-2" value="&lt;font style=&quot;font-size: 15px;&quot;&gt;Ввод&lt;br&gt;f, a, b, x&lt;/font&gt;" style="shape=parallelogram;perimeter=parallelogramPerimeter;whiteSpace=wrap;html=1;fixedSize=1;" vertex="1" parent="1">
          <mxGeometry x="460" y="220" width="150" height="80" as="geometry" />
        </mxCell>
        <mxCell id="fGU5-6Gu9raDwxBx_SRh-12" style="edgeStyle=orthogonalEdgeStyle;rounded=0;orthogonalLoop=1;jettySize=auto;html=1;exitX=0.5;exitY=1;exitDx=0;exitDy=0;entryX=0.5;entryY=0;entryDx=0;entryDy=0;" edge="1" parent="1" source="fGU5-6Gu9raDwxBx_SRh-6" target="fGU5-6Gu9raDwxBx_SRh-28">
          <mxGeometry relative="1" as="geometry" />
        </mxCell>
        <mxCell id="fGU5-6Gu9raDwxBx_SRh-6" value="&lt;font style=&quot;font-size: 14px;&quot;&gt;Создание стартовых массивов&lt;br&gt;1. Один узел через многочлен Чебышёва&lt;br&gt;2. Два узла через многочлен Чебышёва&lt;/font&gt;" style="rounded=0;whiteSpace=wrap;html=1;" vertex="1" parent="1">
          <mxGeometry x="110" y="410" width="210" height="130" as="geometry" />
        </mxCell>
        <mxCell id="fGU5-6Gu9raDwxBx_SRh-15" style="edgeStyle=orthogonalEdgeStyle;rounded=0;orthogonalLoop=1;jettySize=auto;html=1;exitX=0.5;exitY=1;exitDx=0;exitDy=0;entryX=0.5;entryY=0;entryDx=0;entryDy=0;" edge="1" parent="1" source="fGU5-6Gu9raDwxBx_SRh-10" target="fGU5-6Gu9raDwxBx_SRh-14">
          <mxGeometry relative="1" as="geometry" />
        </mxCell>
        <mxCell id="fGU5-6Gu9raDwxBx_SRh-10" value="&lt;font style=&quot;font-size: 14px;&quot;&gt;Цикл i от 1 до n-1&lt;/font&gt;" style="shape=loopLimit;whiteSpace=wrap;html=1;" vertex="1" parent="1">
          <mxGeometry x="481.25" y="560" width="132.5" height="90" as="geometry" />
        </mxCell>
        <mxCell id="fGU5-6Gu9raDwxBx_SRh-13" style="edgeStyle=orthogonalEdgeStyle;rounded=0;orthogonalLoop=1;jettySize=auto;html=1;exitX=0.5;exitY=1;exitDx=0;exitDy=0;entryX=0.5;entryY=0;entryDx=0;entryDy=0;" edge="1" parent="1" source="fGU5-6Gu9raDwxBx_SRh-11" target="fGU5-6Gu9raDwxBx_SRh-10">
          <mxGeometry relative="1" as="geometry" />
        </mxCell>
        <mxCell id="fGU5-6Gu9raDwxBx_SRh-11" value="&lt;font style=&quot;font-size: 15px;&quot;&gt;Получение коэффициентов многочлена&amp;nbsp;&lt;/font&gt;" style="rounded=0;whiteSpace=wrap;html=1;" vertex="1" parent="1">
          <mxGeometry x="460" y="420" width="175" height="110" as="geometry" />
        </mxCell>
        <mxCell id="fGU5-6Gu9raDwxBx_SRh-21" value="" style="edgeStyle=orthogonalEdgeStyle;rounded=0;orthogonalLoop=1;jettySize=auto;html=1;" edge="1" parent="1" source="fGU5-6Gu9raDwxBx_SRh-14" target="fGU5-6Gu9raDwxBx_SRh-20">
          <mxGeometry relative="1" as="geometry" />
        </mxCell>
        <mxCell id="fGU5-6Gu9raDwxBx_SRh-14" value="" style="rounded=0;whiteSpace=wrap;html=1;" vertex="1" parent="1">
          <mxGeometry x="475" y="703" width="145" height="100" as="geometry" />
        </mxCell>
        <mxCell id="fGU5-6Gu9raDwxBx_SRh-18" value="" style="shape=image;verticalLabelPosition=bottom;labelBackgroundColor=default;verticalAlign=top;aspect=fixed;imageAspect=0;image=data:image/png,iVBORw0KGgoAAAANSUhEUgAAAIkAAABWCAYAAAD7TLUzAAAAAXNSR0IArs4c6QAAAARnQU1BAACxjwv8YQUAAAAJcEhZcwAAEnQAABJ0Ad5mH3gAAA3LSURBVHhe7dwJWFTl/gfw7wzDpiQ6rAqIIuq9QqDkRshqUmqWWze9Kopdw8y/Vv6Tv7ey0squktY1H54WjdDAJb1qpiYKyCIoIIq4/VlFREX2bWC23x3gqGzDQUFinPfzPCjnN2eOzsx3zvue97znCEgFDNMOIfc3w6jFQsLwYiFheLGQMLxYSBheLCQMLxYShhcLCcOLhYThxULC8GIhYXixkDC8WEg6RImbCXuxOzpP9Zv2YSHpEEJ5QQay8ktVv2kfNlWggxS1VZDqGsFQhytoEbYn4aGsysUfX8/HkKFLkVijjY2N1oekHAkx51HHLbVFaDQIDha6MBrtAxcj7Xy7tDokkowwrF70JaKK2ttD1CAu8gKcvD3xjIAraRktDokEUd+FICH3KELDs9QetVDdeUScMYDHRGutfbO0NiTSwiPY9ksaFFSDkyEhyJS13X+vTItCko4rHCkTebXa2cfX0pDIkbpjO64NHIUh+gIUpYUhPKaCe6wpJe5dTMctSRYSr0lhZqCl7U39IbC2UVRGkt9wJ/pX7GXa4GtNAgjJ4fWdVKbkVmhCUXWTLmfcIwW33JK07AYlHg+nLes+o8NXJFy1UWlaOP3z/c2UcFvGVTSTFoZEQVd/nEPDXthCt2Ryyt29mMQ6AtJ5xofCsqXcOh1TnvAljbezImN9oaodEpHr8hP0cAt1dOTd0SRU1T3/N4araSata25Iegk/fH8e05fPxwCRDmxe9sO0wUZQVMUhNOQiFNx6HdFnfCASsvKRHfspHAwIN9IuoEhxv9+iB8+ANQjwGgilTMbVNJPWhaTg+A84JJ+FxVNMGpaFvd3gP88FIkgRv2s7zj/GgFk/J2+MH9gb1XcKUCjniipGw1+F/5Tn4TnJhatoJu0KiSIXodtOwPOtNzFU934nVIRxfnMxto8uKnP3Y+dvhVy94wQiawy06gVJSSFKH+xJ6o+gfsd3KQ7wf9GYq2gmrQpJ2dmfsDPHC0teH9jshRsMmgU/X1sIlUU4/OMe3G7yQXeIjinMTQwgryxCSc3955bjyMbdcFyxDHYizT4q0p6QqALw67f7MWzRMox9psXLFppi5hvTYCkCbsb8jP2X2huob4suzMz6QKAsxt07je3Nnehv8HvvpQh4vk/DsibTmpBIrofhh/jhWLLYoc0Xbeq9AK85ihs6tuE/xrR7Pqc1ISws+qn2RMW4VyiDrCQSG0OEePf/3GHIrdFpimJcvpz/p8xn0ZKQ1OBE8C4YznwbL1jqcrXmBHpOWLjQFfoCOVJ+3Y7TxY/ycQhhZi5W7a1KUXg3H+HrwuG86j04GnZFMyNDZuwOvOHhhBkfnVR1r7ufVoREWnAQwYd6wX+ZG/S5Wms6cJg7H16m+qgrPIrQ3dmP8K0VQmxmotp2DWKCP8SV0YFY8Gwv7rHO0oW9ux8WThrKLXc/LZh0JEfcel/4fnUDzs7W0OOqbZMh/1ISsksVMHvuA8QnrGtyFNS+stNr4DTp37Bfvh8Hg15CHzVfP1lVFZRGRtBXVKOkUgfivgbcI+1RIGXjVPw9cQ4uHliEjjyjSzUMqTGdVhLzEXlO+5qyatsY21eRFl+lX1ZPpAEuaygpfR+tnD6KxJbzKKpS3YB/U3JK3vgiDZvxEzUf+O8eWtNxfZKkt4/jk+8V2LDjbdjpt73n0RXbY5ARYOtijktn+2HVF34Yoi+CSAM+ARaSxySvq2vos0huHMGKpXvhtXYtXE1Vx9DqKG7hVHQW9KgvJvzdC3XxiZCM9oaT6vAn79iXmD93Lua2+pmPtTvTuQ38ibg9Shepo4zTobQ+cAWt3rCfcquKKeW37bQxaB/lytreDWseBeUeXEmDe5vT1KVv08Sxr9COlDLuMfXqboeSt+lf6PPoUtVSGX33+l/JL/iG2rPLzT0lzY2i4gI2+7ljxtokWHvOxiSrc9iwfh1WznsL38eWo6+OZo86PkQozsnBXUklMq4Ay0PC4O/CP+xeGBWJfKcl8J9gDGV1IiKTzOA2qgb5ZR07pUjKhjP23FI3a8xK5ygqkumDibZk5/05pd/viClu0YaXbEgkMKA532R28BvTqDxxM012HUdjx47t0I9vQCgVybtzT1VLpSVVj/CaqmnXYid6ffP/NzynKn0TOYvH0Oqfz1CpvHEN9RR0K/UQBU6xI+Ohc+nHiCtcvft0/hBYWYTdy17EG/+xQVjKPrxqzQ1WKe9i09TnEHjKEsGp8QhwUD9C0ZL0TjIOnbyKjs4W1LdwwTRfh64b3XzSlGXIzqiG1XCrdsZteo5Oh+Re1BqMm/wtRn0ah32Bzg96wiRNxNKRk7EXixGbGgRHNb3+J6miogKXLl3ilp5OlpaWGDJkCLf0ZHQuJMqbCHrZHR+mjMXhK7vha/Kwi1OR9BnGTPgUfRcfRmzwZJ5BrCcjISEB06dP55aeTn5+fti0aRO39GR0KiS12cHwcl6Jiik7cG7PfBhxdSiLEeLviX/suov/2XMdW2aLuQc6pjYvFr8cvoAHZ915GAxww7xZLuiqgXCmuU6F5FbYIgyfH4YXPj+PA2scuaZGiZvH3ofnjK+Rpz8FBzIP4hWzR7uAtiJ5G/zXHGg2gac9xs5vYnvQHIi18DrdblEfkscjp9SgySSCHs0Oauy11yu/HEJLFrxMDr10yMoriApkJZSWmslNEFZQ3pk9FB7V0fEBpifoxDiJDvqK+0IkkOH0zq/wW1IaTu38EP4f5+FvUwfibp0Ag0c6Ii/0CxzMFKnWrqfdt3DQWFxYHou08BgtGCEm1XELCYRG5DJrE6UWy6ggbCEZCgSkb+JAb21Lohpu/XpySSXV8I4NaI+6u2dp18+RdLdLR6TL6cgn08lnzlbKlHZ+u50eTJMWX6Hf9+6liPO3HlxzoqjOoYh9v1J8xsPhakVlDh3fMo9sredRZAVrbO6TZB6ktR/83CUf5gOKQtru50j9nd6n85LOb7fzg2mPID/cHy/tdUf8gcUwflpG6dWS4k5GGlIvFMDaZwqeNVFz8k9Zh6paHRj1aufk4J+sy87d8Ht6buFQnBKCgDmLsPloHldpqgrJB4MR+NpYDB4+BjNX7kepfltvczWux3yLaUOH4ZM/KrlaD9WwP+kGytpYWjxiPAWn13KVnq6akn75mJa981WLa3nLaNvMQQ39MFOXD7haazXXvqZRhiL6y2uhVMnVWpKX/kpTbV+hw/d6dvPbbXsSTbuFA8lzsG9rMIL/vQF74pvecaA+Ho3/f5KrO4OrxJ0z53C9zgCuvt5qB/lKzpxG9lAvjOnXs3et3RQSzbuFg0DkgPVHE5B88QK+nNV0xNgAFpbG9VGBoVn/xlIrVYg6lYw6PRf4vGCh5k2WIvGPRNh7+MC8h0+j6KaQCDF47leIPbYd780epTFna/X62cHFseWZWiFsbMxVfwohtrbias0pa84hMr4AJk4T4WbddoeUpOmIiJPC1U2Aa1kSrtozdVtzI+xtjRH2pt33D3aCpDgbCSf2IXjTFziQWsNV7xNhgLUFRAIdWFjbcLXmKlOiEFcghdPESRgoEqiapTuI/OkzvLNyHY5nNG5PVpaOS9k1uBJ3FToW3T7//dFwfROmgYJy4sJp678CyNlYREL9CRSS1fqeJSURq6i/SJ8WBOdzlaZkFP2xB+mK7Gh9dBVJSxPpQ9/hJDY2JKFA0DAFsaJhvWrKSc+gsm6dLPV4NOGL3Y2EGOQ2B8uWz8BwIz2IR3jA1aZ1c2EwYADM9cSqPcozXKUJRS5OnroGkbk7PJzysW3FBogCjiA7cQOcDYSok0igbOj39sIgB3sYa8C0ThaSNlRdPofUezIMm+CDwW1cnKVnZQ0LQ0tY2bSeJVNXcBrRF0sx2MMDlcEbUT5rKz6aaQ9ZdhZuSgUY/KwjevX8XDTDQtKKAtdPxSJHbgK3ic+hrSuHhQaW6G8+ADbWLUOixO2oaKRW68OubzL+U7cQga/aqN5kGZIiz6IMFqptjmxzmz0ZC0lLygJERF6GoM84eE5o+7YRApElbEfYwrzVLqEK0RFJkAj0cC1dH2+umtBwSSbJr+JkVBaEJh7wce3duKoGYSFpQVoUg6iUIlg+540xfdW0CzrW8Jrzoqop4pY5ypoknIy7BVL1N6a/F4jR3AXBtVnRiL5arurvTMLolvdG0QAsJC3cOx2FpHKCs5c3TNV2KnvBe/Yr6N/iDkaVqdGIL6iBrfcqvDPt/iCaErmR0bhcq4dxvj4w0rD+SD0WkmYkiI04i0qBHdwnDoEk4zTiMlrfzqbmRiS++SwIR9PLuUo9OS6ejEW+vB9efmMurB4EqBxRJy9ApjcKPpMscTPxDHLV3H26p2IhaYKkaYiOz4eO8Ug4mEbh0y3J6DegZee0HDvfX4J3P1qNfwRs42oqihsNh74CYw9MmWTGFVXbrD2PMymFMLYfB8vMrQhOUMK8g7ez6ClYSJpSlqO8QgpZySGsWpaImZ+shEPvlh9obzi7u8CyjylGeozhavV3Fmg89LV1n4zx4odvK8nKUVYlR9m1n7DlhD1WrXDTuFn93TrpqOdTID/5GBLvWauaBmeIu+SuiVJkxv2Oa8JR8H1+0J9y/VFnsZAwvFhzw/BiIWF4sZAwvFhIGF4sJAwvFhKGFwsJw4uFhOHFQsLwYiFheLGQMLxYSBheLCQMLxYShhcLCcOLhYThxULC8GIhYXixkDA8gP8CVKcWugJoRBEAAAAASUVORK5CYII=;" vertex="1" parent="1">
          <mxGeometry x="481.25" y="710" width="137" height="86" as="geometry" />
        </mxCell>
        <mxCell id="fGU5-6Gu9raDwxBx_SRh-25" style="edgeStyle=orthogonalEdgeStyle;rounded=0;orthogonalLoop=1;jettySize=auto;html=1;exitX=1;exitY=0.5;exitDx=0;exitDy=0;entryX=0.5;entryY=1;entryDx=0;entryDy=0;" edge="1" parent="1" source="fGU5-6Gu9raDwxBx_SRh-20" target="fGU5-6Gu9raDwxBx_SRh-24">
          <mxGeometry relative="1" as="geometry" />
        </mxCell>
        <mxCell id="fGU5-6Gu9raDwxBx_SRh-20" value="&lt;font style=&quot;font-size: 14px;&quot;&gt;Подстановка коэффициентов и узлов в общий вид многочлена Ньютона и вычисление значение в переданной точке&lt;/font&gt;" style="rounded=0;whiteSpace=wrap;html=1;" vertex="1" parent="1">
          <mxGeometry x="740" y="688" width="235" height="130" as="geometry" />
        </mxCell>
        <mxCell id="fGU5-6Gu9raDwxBx_SRh-27" style="edgeStyle=orthogonalEdgeStyle;rounded=0;orthogonalLoop=1;jettySize=auto;html=1;exitX=0.5;exitY=0;exitDx=0;exitDy=0;entryX=0.523;entryY=0.991;entryDx=0;entryDy=0;entryPerimeter=0;" edge="1" parent="1" source="fGU5-6Gu9raDwxBx_SRh-24" target="fGU5-6Gu9raDwxBx_SRh-26">
          <mxGeometry relative="1" as="geometry" />
        </mxCell>
        <mxCell id="fGU5-6Gu9raDwxBx_SRh-24" value="&lt;font style=&quot;font-size: 14px;&quot;&gt;Цикл k от 1 до n&lt;/font&gt;" style="shape=loopLimit;whiteSpace=wrap;html=1;" vertex="1" parent="1">
          <mxGeometry x="1050" y="620" width="140" height="110" as="geometry" />
        </mxCell>
        <mxCell id="fGU5-6Gu9raDwxBx_SRh-32" style="edgeStyle=orthogonalEdgeStyle;rounded=0;orthogonalLoop=1;jettySize=auto;html=1;exitX=0.5;exitY=0;exitDx=0;exitDy=0;entryX=0.5;entryY=1;entryDx=0;entryDy=0;" edge="1" parent="1" source="fGU5-6Gu9raDwxBx_SRh-26" target="fGU5-6Gu9raDwxBx_SRh-31">
          <mxGeometry relative="1" as="geometry" />
        </mxCell>
        <mxCell id="fGU5-6Gu9raDwxBx_SRh-26" value="" style="shape=image;verticalLabelPosition=bottom;labelBackgroundColor=default;verticalAlign=top;aspect=fixed;imageAspect=0;image=data:image/png,iVBORw0KGgoAAAANSUhEUgAAAuYAAABbCAYAAAA/UkDRAAAAAXNSR0IArs4c6QAAAARnQU1BAACxjwv8YQUAAAAJcEhZcwAAEnQAABJ0Ad5mH3gAABqWSURBVHhe7Z3b6xXV+8fH33351bwUCTUoKhT7ZJEpFKRRV6GgdiUolRqBUXmMiE4o4oVQWeilaVYQgpIGBVlRHkKh6KIMKenKtMMf8Pnt13Iem8Y5rNl7Dmt/9vsF81mfveaw13qe9az1rDXPzJ403iMSQgghhBBCdMr/xakQQgghhBCiQ+SYCyGEEEIIEQByzIUQQgghhAgAOeZCCCGEEEIEgBxzIYQQQgghAkCOuRBCCCGEEAEgx1wIIYQQQogAkGMuhBBCCCFEAMgxF0IIIYQQIgDkmAshhBBCCBEAcsyFEEIIIYQIADnmQgghhBBCBIAccyGEEEIIIQJAjrkQQgghhBABIMdcCCGEEEKIAJBjLoQQQgghRADIMRdCCCGEECIA5JgLIYQQQggRAHLMhRBCCCGECIDgHfNffvkl2rp1azR79uw4pzrvvPNO9PDDD0cHDx6McyYudcjLl2GSa5tyGQa60N0o6UC2MbwMojvJ8l/Ux0x8hqmfGyrGA+bAgQPjU6ZMGV+7du34+fPn49z+4FqzZs0aX7JkyfilS5fi3PA5e/bs+PLly50cUBcbdcmiTnn5Mgxy7UIuw8Cgutu+ffv42NjYtXbJtfIYRR3INoaXfnQnWV7PoDYQ+vgnBtexuJ6BHHMGZjOW9IaiMJB+FYWyuU6eEfYDZcGRYBuGBnTkyBEnA5MjnRSfSdM0IS9fQpZrl3IZBvrVHcczCJ44ccJ9ZvBky2KUdSDbGF6q6E6yzKdfGxiW8U+E3c8NIwOvmGM0GERyUGa2avkoqiqcz6C/ZcuWOKc+mrx2ndC4KScTnDJCqFOIch0WXXdNVTnZhNxnEJQOZBvDjI+cJMtyqspo2MY/IT3UycCOuQ3Se/bsiXP+BSWxL2uGWwS3RDivqZkXDYfr22pfiNgKgE8jb1pevtQlV2tTg14nFLkMA1V0x2DpK1fp4CqyjeGlTHeSpR9VbGAYxz9RXz/H+VyH/m4UGfjhz++++86l9957r0uT9AZwl/7zzz8u9YGHN44dOxatXbs2uummm+Lcelm9erVL33vvPZeGBjLYtm2b+3/BggUuzaMNefkSklxDkssw4Ku7HTt2ROfPn4/GxsZK5Sod/ItsY3gp0p1k6Y+vDSDTYRz/RFj93DAzsGN+/PjxaMqUKdGcOXPinKv88ccf0enTp93/t912m0t9+PTTT126aNEil+aBgzB16tRo0qRJ1z0RzFPZ5JNmMXPmTDdpCPFJYp5wpmw4P/Doo4+6ulDXLHzldfToUfekOtdat25dnHsV5MD177777jinP0KSa0hyGZQQdPfll1+679+4caP7jG3zmY0n87Now5brgL4KufI9lOPcuXPxnqv7sEn2oYd+kW00Q9e2IVn642MDTY1/2LTZMXXArg32Wb2T+XXTdRtoQwYh9XNDTbxy3hf2MEbWQ192S6M3k41z/LDbUkXhL9zmInSGW1e9RuBCZgy+j/PZeHgkD8rMMb63XOzWStWtn1sx1ItzfeLzfeRF7Bdy4bpWbzvebhmy+dw2LKOqXLOo43Z9aHLpl9B0Z3ZdZFtGW7ach7UjylEEdaLOlJPjkQNQJmzQysDnQZBt1EsItiFZViNPjkkoA8fUNf4B30sd6Ws43kJvOc9Cbvt5Hg44l62oTk3K12RQ5ms0KYMkPjoug3N96jRRGcgxtwZlCgaUbIpByTTEKjA4c64vNGSO53spBw3MGnwRNsBRh9CwRokhl1FVXvakO7JCTnXLoA651uF8hCaXOghBdzYI0MGX0ZYt52H1ocy+0GfZ5IB+rJ8+LA/ZRnN0ZRuSZTV8bKDJ8c+cfmyb/znf53uK4HpsvjZZt3x9HXOjCRkkqaOfszbgW6eJxkChLF988YVLn3rqKXcLhG3u3LnRn3/+GfWUEp06dapy3FdvwI//88Ni0Igz27x5c/T5559fF1ZTxK+//hr/Fw5ff/21S33qUVVe99xzj0u5dbVmzZqo1zlEK1ascHl10rVcQ5XLIISgO+ys57i6W5ZltG3LdbB48eLoypUrLjyHcJ1PPvmk9thV2Ub9dGUbkmV/FNlAk+MfttybbDvb3rVrl/v/rbfeive2Q9dtoC0ZdN3P0Yfjk2aFQRJKxL6skBvCfKZOnerCNzsjdtD7oups1QeuV+WaPcO8dk6VGZrN6kKckdkdB2bTZVjdq2B6q3OWbFSRqx1bdfNZmbBjqzCIXOz7qmxVVnKNLnVnqzu0Tx+snr70a8t1wvfy/YOu1mch2/DfhsU2rLxVGGVZ+thA0+MfdeKcOu+GVaXJtupDkzLw0bFhK+NVN59r250EtjSWn7aNZHl8vqMp+l4x52loZqu9isU53WArd8z6mpx12sNvVTcebKsKD9RCU6uFPOQBr7zyikvzYKbJzJF6MItkhl8nL7zwAhZz3dYzCLe/ZySZ+++//363v2585ZJFVjnLNlZjq9Kl7r755huXzps3z6V142vL1IU6UTfqWOeDodOnT3dpb+AqtT/6BMrRxMqKbKMZ2+DBNtqW9c/83+QDf1lMpH4G2THG8VBhXTQ9/t18880uffnllwvvhjU5/nUpX/CRAf0aK8smA9J+/Jki6K+y2iz9G9DfZe2nfyzjsccec+mWLVtcmoT+HVatWuVSg/Iw/nBX+L777otz26dvx/zkyZMuveuuu1xaF72ZZPyfHzQchGhvgKnKjBkz4v+KyWtAZZtPA0rChIdb6b4Tnqry4taN6e7HH390aRZ0Sm+//baTa29G7b7ngQcecOXzwVeuTdGUXLqka93ZwOTbYTVhy9SBuhBygn0dPnw4ev3112txzhkEN2zY4Mpw5syZOPd6KAMD5cKFC/vqd2Qb9eNbRvRGqCV2wcIS+qvi9KR1N8qyJFTglltuufampirk2UDT4x992Lvvvuv+//77712axaB9aBFtyLcIXxnQvxGObDJgEktZKL8PXfdzTz75pBsjXnvttTjnXwjdYV/WAhB1vnz5cmOLHD707ZhbfHnZe0arYjNJn9kpDRchbtq0yX2usnJl71+3FbJQMIP1nfBUkRfH4PxYPJnF8qWh88HZeeONN9wqJjNqYn7pMPft2xcflU0ocm1CLl0Sgu5sJcv39adN2PLOnTtdap0tnefy5ctdnQdd+Vy/fr1z+OfPn+/i3LPgO9AD71k+cuRInOuHbKMZfMuIQ4GTwSocdoF9PP/88y6PV9kVkae7UZUlK6d//fVX9NNPP7kVRl/KbKDJ8Q/bXbp0abR79273+bPPPnNpmkH60DKalm8ZvjIw3n///WsyeO6551zexx9/7NI8QunnhprerKEvejNIF4dDTE4exOgQq8lG/CgxYxb3k47tMfbsufoqn7IYU/ZzXa5pcUF8ny+Un/NDw95M4Rtj6ysv5ER97bgiHXAM+9O6LTrHqEOu6DHr+6vQhFy6IgTdXYqf5OcYX5qwZb4/XY+89mL5Pq8gI+ayNwC6evq2Pytr2XGGbKN+qpTR4mqTmA7z2puRp7tRlWUSjvGtS5kNNDX+YdfYN20AKC/nZcG12Je2sTx5kM/GdxTRlHytLrztpYgqMsjCngHq11aq4GuXE5W+VsxZeeA2IPz9998uTcMxkydPdreamWnyQwCHDh2K9u/f71YsWJHKWhV76KGHXGor8mm4xUS808qVK92skzg0Vs16DeHa7RlmpEUrIMyIKX9RHGtXVF2VLJMXckBevC2H+lqdWWVEB8gCXSVDAfKepmbm/vPPP8efrickuTYhl7YJSXfffvutS7mOL03YsvU7Se644w6XXrx40aWGhdwUhaVYrDpy3Lt3r1sZ6g1Ybh+/XscKE6EOyGcQZBv10k8Zs3Ro/eyFCxdcmkWR7kZVlv1QJEej7vEP+6Vu06ZNc58tptvij6kXq9jJcKaqfaj1F3lhKU3L98EHH3RpXlhKPzLIwu4WLFu2zKVZ+OhYeBA76N7YTCa5Fa3e2PG9Rhjn/DvLZQaZhc3ksmagzPiSs07Drsm+slmWzcqLyt0VlIutCkXysrqmVw2pO7JiHzPo5LnIj/y0fMpm2HXJNe/7q1K3XNomJN3ZdctsK03dtkw+10xCmbPKZtdJy8+gTOxnhSfdF9Ff2b68lSj73jyZJSmTry95+q3KKNpGng2Ql25TScp0N4qyTEL9i+RnlMkR2M9WhSL52zvDOSa5n/+xbduXtP88G7PvSWMyypNP0/K1viqvn+pHBmnsLkK6r07jo2MfOJ/rVB1vJgrVLKAPrJH3ZlFxztVbijTIPDiWcziubpq89qBYYywywizqrlNRx4QzlUWIcg1Z103RlO44P+u6ZdStA66Vtg+zm/TAVNcgkYd9b9n1ZRthYG04DXlpp8nwkdMoyjIJck3bZBofGZk9lV0rTd3yr9KH4tz2U+YqlMnXFjjyHPtBMceehY4iRt0O6qRxxzyrMdOIkivoWfjO0KpAw6UsbE014kGwDqHMALKoU1620pjumNBbVgcRslybaEch05TuuGbRZLqIOnWQVY+sOlMXjs1zuOrAHIm0rJPINsLBVhaTsEpIHn1vmiq6GzVZJsEes/oWw1eOwzj+UWbycUqboki+1gflrZYPCvZB/cqc7Sq2Ispp3DGn0SSVah2hj/FhZDa4DqpsGjC3bWjgoTYcGjWy6dfI65KX6Sjp1NhsOK23YZBrne0odJrQna2YDLISUpcOzLlKXoNyce0k1DUpgyawQZE0C9lGWJjDlXRiqD952E2SfnQ3SrJMgozYsqgix2Ec/yhzuu3UTZF86fuodxNQZ+RZ1u8PQz83bDTqmKMwGnOy4VgeKfnphp6GxoGBoPh+4TtoNE014DqgbMgla+WmCnXIC5AXRkmng7HhEPE5aXjDIFejLrkMA3XqjnMYfNLn90MdOrD+wwYL+zyo3VQFWVAXvps0jWwjPNAZ7dhW9ag3dUZPSQbR3Sj1M0Afg0zZqHuSKnLkmGEb/9qgSL5Ng52wJaE8SXsZpn5umGjUMbdbU8kGxf8YDQ2t7cE0RDB0ZIRMaOShQLlwfigbGx0TRinCpy7dmePJ+W0PCkWw4om9UDbStvsRBiKTbXJLDlgiTMyxQF+MQdhJ287WRMAmxFkb+3zR+JdNXfLtF5soZW3q55pnEn96whZCCCGEEEJ0SN+//CmEEEIIIYSoDznmQgghhBBCBIAccyGEEEIIIQJAjrkQQgghhBABIMdcCCGEEEKIAJBjLoQQQgghRADIMRdCCCGEECIA5JgLIYQQQggRAHLMhRBCCCGECAA55qJzfvnll2jr1q3R7Nmz45zR5Z133okefvjh6ODBg3FOeEhf7TEM7UEIIUR9yDEXnYLDMTY2Fl25ciU6fvx4nDu6PPnkk9GqVauibdu2OYfsjz/+iPeEgfTVLnW0hx07dkR33313NGnSJLeVTag08WqXc+fOOVkzCQvN3oUQ7TNpvEf8vxCtgpO3cuXK6MCBA9GKFSviXAEM0Dhi8Mknn0Q33XST+79LpK/u6Lc94JCfP38+Onz4cHT//fdf01veCjz569atc8c999xz0cyZM+M9okm+/PLL6NVXX41+/vnn6KOPPormzJkT7xFCjBw45kK0Tc9ZGJ8yZcr4li1b4hyRJiQZSV/dU1UH27dvZ9FlvDeRinOK4bgqx4v6Wbt2rdPx2bNn4xwhxKihFXPhDas6CxcujHoDfvTCCy/Euf3B6t+xY8eiS5cuBbEaHCqEFLz++uvRiRMn3IpnV0hfYVClPRAewWq5j84IXyFEqecYRq+99lqcK7qAuxxw6tQplwohRgvFmIvWwQnAycMJkJNXzOrVq1363nvvubQLpK9w8G0PxJXjlONs++iM8BWeG3j22WfjHNEVL7/8cnT69GmnQyHE6CHHXLTOp59+6tJFixa5NAseiGKVlofVWEFKPhRlD0uxr8uHpdooIzG+s2bNyo0JbgMffQGOxNSpU12d0+VlpZd80i4ZhjIWUdYeuKtFHTZu3Og+4+DxmY2HC7PwmXjRhnHeuQ7yo30b7DM7OHr0aJw78aBuZtPIIgn6QC622j0IjzzyiNPxu+++G+cIIUYKF9AihAcnTpxwMajErg7CkiVL3HWK4iiXL1/uYmr37NnjjiUFziEGk7yxsTGX1xVtlZHv4VrIvwt89EVcMvW/dOnSeM+pcPU3iJvlfLYjR47Eue0zDGX0wac9EIfuWxdrv0Wx5VyP76MNcCxlAGRJGyePjc9VsVh42lnbWJ/GVgR2ThuhfiZ/sweLzWer6xkMa49FNieEmJjIMRfe1OWY4xRxHR8YCDmWwdAcKgatkGi6jFUf4qubKvoCcwpxKnD6QnyYbRjKmIdPe7DJFA5lGT4TryQ44japoc3zmXbfL8PgmCdhssPxtBtkxv9126ZNlgbta4UQw4dCWUTrEPvqC7fWewO/uyW/a9cu9/9bb70V7w2Dtsr466+/xv+1SxV9wYIFC1xKeMTmzZujzz//PLjXvw1DGcsoag/Uq+c8e73ukFf0gW/9Fy9e7OLRCY2hzYfyOs+2uOeee1xKOM+aNWuinhNd++tDb7/9dpdeuHDBpUKI0UGOubgOi1NNb7yRBYhfzdrf1MNK9i5mftDmzTffjHP9sNjXqltVBinjROPWW291Ke2ECUoVhzev7ZVtVdveIGUMHYv/xoH2oerE684773QpExreuT2oU84bnsbHx52D3za82YbvZvOF+s6aNSt6++23nd3zI1BNQfy/EGK0kGMuriM5WCW3EydOuP3bt2/P3D/oKxTzuPnmm13K2wqqOgEM9lllLduq4ltGHhKzB8hI8x7iG2ZslZY7B1VXEvPaXtlWte0NUsa6sQcH6+Kbb75x6bx581xaN9OnT3fp2rVrCyc0TBBwXGnr1C/kh2qrgu3CK6+84lIhhKgLOeaidVht8oXB3d5O8P3337s0NHzLyFsd+OXM3bt3O2fyiSeecJ9932QxY8aM+L92qaIv4I0VhFEQ5hAqIZSRuwM4eLQBQkOqktcebMX8vvvuc2md8AaWDRs2ONmdOXMmzr0eVnofeOABt2pPW+eXR3n/+kRwzplInTx50v3/448/ulQIIepCjrloHVttMgciD5yApUuXOkcWPvvsM5eGRJUyPvPMM9Hy5cvd69CAVV4cnJdeesl9zuO7775zqa1Uto2vvoC4Y34YZdOmTe4zzmdohFBGJmO8i5zQpy1btsS5fpS1B64Jt912m0vLqDLxWr9+vXO258+f7+LY89i5c6dL7ceKuBNC28c5x2aGFWyASZ09Q/L111+7tCl8nhEQQkws5JiL1nnsscdcWrTaZO9GxgnAkV2yZEmhI9AFVcrICiKxvOnwAhycslVb9uPAl/3SI1hMfTLmOhm3nSTr2Cx89AWsJBJ3vHfv3murtU07LlXxLSO6tfd227upk++xHvR5CtoLzh2O1+TJk+NcP4raA+WmneFs+4Z9+U68kAfX5keIHnzwQZeXN6lhckDbTmJtP92OkCUy9VlNr7t927mm4yKQD3cB0JuFP+VNxPlOwnfYsH3OtfKQlvHDDz+41ELkhBCjgxxz0ToPPfSQS7/44guXJsGxYPCaNm2a+2wxnOYc4ljZINcV/ZTx999/j//7L3fddZdL8x7yMoe+yzjoIn2B/TAPIRn2ICVOI86jhfjg1PmG7DRB1TLydp3HH3/cPU+BI4xOf/vtN/cGEyZg9gM+bVPWHr799luXEjvvS9nEy+LEkQETGhx+ZACs+tsENdmGKWOaO+64w6UXL150qWETpKLQmKawyU3R5Jg2Qf3nzp3r5G6y5w4AE3HqjWxsYsH/TLYI3yFEiR/oOnToULR//37Xnjin7C6NTZJMzkKI0UGOuWgdVgkZcHirAYN6EnMs2J98DduyZcvcKiCOFU4RA1xX1FlGWy3Nc9z37dvnUpzErijSF7A6ioN74MCB/ziMb7zxhnPQWDVk5c9CeLqgahkJwUiuSP/111/X3r7xv//9z10ria36lm2DUtYe7BmHKg9+lk2UcVpp18lXSpLimNImeH0gYVplYRc33nijS9OvebTVYZuktok5wEUTma+++sqlhBxZCAs8/fTTrh0gG2THnQSgfSXf1ILcaE/0E2bvN9xwg0vzoL1y3aKHa4UQE5RxITqg5wy5H9AI7ceCmiLvx5n4TH7WD7SEJKNR05fRm5C4H1hKwmd+WKcurA2U4aMDyssxtLcq2HmD/FBQEq7FNZOYDaR/jdR+7KlqmevAfiwobZd1YHpFbwa66znz8adsmiyTECJ8tGIuOoHVNVYvWXHj1u9EJ2+FzB7kS8cDs1LJiiQreSG8km3U9GUQdoAeDFZYe46WizVuE9/2QHlZxc2KPy/CVoJffPFFlw5K+o4C2Mq4rZwD9aJNsRpdtcx1wEPbyLSJV70Sf861k3cSsJ2y98tz94HV8qZePyuECBs55qIzuOWLs0dsL/GZWWESEwVuSeOsfPDBB3HOVQgTSDp+QPwp4QE46yH9quIo6QssDth+UAfsHeH33nuvS9vAtz1YfHwyVMeXuideOJ9MEpJthElNetLw4Ycfuveh29tb2sTCWJBpE1D/5EOlfB8x50WTOmzr8uXL7oebhBAjSrxyLkRncKuX29npkIGJht3a7jlA//mcvIW/Z88eFwJgx4TIqOkrGYpgeUBYwtmzZ93//cK1LYwkHeIBvu2BEJSxsTEXJjFIOArfwzXQ7yDXsbAVC7uxz6MSnmH1TerN8kjJR7eGtQNsatA2JYQYbuSYC9EiOCY4PgzQOFJZzpgIA3OUkqAv9Ef+oLqjDWRtVZ1Xi9Em7j05ieiXuiZeyIdrUDbSUXHKwSZwSX3wP3Kg/SRlgSNOPo56XTH+QojhZRJ/eh2IEEIIIYQQokMUYy6EEEIIIUQAyDEXQgghhBAiAOSYCyGEEEIIEQByzIUQQgghhAgAOeZCCCGEEEIEgBxzIYQQQgghAkCOuRBCCCGEEAEgx1wIIYQQQogAkGMuhBBCCCFEAMgxF0IIIYQQIgDkmAshhBBCCBEAcsyFEEIIIYQIADnmQgghhBBCBIAccyGEEEIIIQJAjrkQQgghhBABIMdcCCGEEEKIzomi/wfx3YuKa60OzwAAAABJRU5ErkJggg==;" vertex="1" parent="1">
          <mxGeometry x="780" y="500" width="652.26" height="80" as="geometry" />
        </mxCell>
        <mxCell id="fGU5-6Gu9raDwxBx_SRh-29" style="edgeStyle=orthogonalEdgeStyle;rounded=0;orthogonalLoop=1;jettySize=auto;html=1;exitX=1;exitY=0.5;exitDx=0;exitDy=0;entryX=0;entryY=0.5;entryDx=0;entryDy=0;" edge="1" parent="1" source="fGU5-6Gu9raDwxBx_SRh-28" target="fGU5-6Gu9raDwxBx_SRh-11">
          <mxGeometry relative="1" as="geometry" />
        </mxCell>
        <mxCell id="fGU5-6Gu9raDwxBx_SRh-28" value="Интерполирование для обоих массивов&amp;nbsp;" style="rounded=0;whiteSpace=wrap;html=1;" vertex="1" parent="1">
          <mxGeometry x="120" y="630" width="190" height="100" as="geometry" />
        </mxCell>
        <mxCell id="fGU5-6Gu9raDwxBx_SRh-35" style="edgeStyle=orthogonalEdgeStyle;rounded=0;orthogonalLoop=1;jettySize=auto;html=1;exitX=0.5;exitY=0;exitDx=0;exitDy=0;entryX=1;entryY=0.5;entryDx=0;entryDy=0;" edge="1" parent="1" source="fGU5-6Gu9raDwxBx_SRh-31" target="fGU5-6Gu9raDwxBx_SRh-34">
          <mxGeometry relative="1" as="geometry" />
        </mxCell>
        <mxCell id="fGU5-6Gu9raDwxBx_SRh-31" value="&lt;font style=&quot;font-size: 16px;&quot;&gt;Цикл while (abs(old - new) &amp;gt;= 0.01)&lt;/font&gt;" style="shape=loopLimit;whiteSpace=wrap;html=1;" vertex="1" parent="1">
          <mxGeometry x="980" y="350" width="280" height="120" as="geometry" />
        </mxCell>
        <mxCell id="fGU5-6Gu9raDwxBx_SRh-37" value="" style="edgeStyle=orthogonalEdgeStyle;rounded=0;orthogonalLoop=1;jettySize=auto;html=1;" edge="1" parent="1" source="fGU5-6Gu9raDwxBx_SRh-34" target="fGU5-6Gu9raDwxBx_SRh-36">
          <mxGeometry relative="1" as="geometry" />
        </mxCell>
        <mxCell id="fGU5-6Gu9raDwxBx_SRh-34" value="&lt;font style=&quot;font-size: 14px;&quot;&gt;1. old = new&lt;br&gt;2. Массив с новым количеством узлов Чебышёва&lt;br&gt;3. Интерполяция&lt;br&gt;4. Увеличение количества узлов на 1&lt;br&gt;&lt;/font&gt;" style="rounded=0;whiteSpace=wrap;html=1;" vertex="1" parent="1">
          <mxGeometry x="700" y="280" width="250" height="110" as="geometry" />
        </mxCell>
        <mxCell id="fGU5-6Gu9raDwxBx_SRh-36" value="&lt;font style=&quot;font-size: 19px;&quot;&gt;Конец&lt;br&gt;&lt;/font&gt;" style="ellipse;whiteSpace=wrap;html=1;" vertex="1" parent="1">
          <mxGeometry x="735" y="110" width="180" height="80" as="geometry" />
        </mxCell>
      </root>
    </mxGraphModel>
  </diagram>
</mxfile>
